<mxfile host="app.diagrams.net" agent="Mozilla/5.0 (Windows NT 10.0; Win64; x64) AppleWebKit/537.36 (KHTML, like Gecko) Chrome/134.0.0.0 Safari/537.36 Edg/134.0.0.0" version="26.2.4">
  <diagram name="Página-1" id="ynrQ5BbeGb8QY-GVJiUL">
    <mxGraphModel dx="1183" dy="662" grid="1" gridSize="10" guides="1" tooltips="1" connect="1" arrows="1" fold="1" page="1" pageScale="1" pageWidth="827" pageHeight="1169" math="0" shadow="0">
      <root>
        <mxCell id="0" />
        <mxCell id="1" parent="0" />
        <mxCell id="JEY6O__xj0MRBRBq67dy-2" value="" style="rounded=0;whiteSpace=wrap;html=1;strokeColor=#000000;fillColor=#FFFFFF;align=center;verticalAlign=middle;" vertex="1" parent="1">
          <mxGeometry x="300" y="160" width="370" height="360" as="geometry" />
        </mxCell>
        <mxCell id="JEY6O__xj0MRBRBq67dy-28" style="edgeStyle=orthogonalEdgeStyle;rounded=0;orthogonalLoop=1;jettySize=auto;html=1;exitX=0.5;exitY=1;exitDx=0;exitDy=0;entryX=0.5;entryY=0;entryDx=0;entryDy=0;" edge="1" parent="1" source="JEY6O__xj0MRBRBq67dy-3" target="JEY6O__xj0MRBRBq67dy-17">
          <mxGeometry relative="1" as="geometry" />
        </mxCell>
        <mxCell id="JEY6O__xj0MRBRBq67dy-3" value="Iniciar sesión" style="ellipse;whiteSpace=wrap;html=1;strokeColor=#000000;fillColor=#FFFFFF;" vertex="1" parent="1">
          <mxGeometry x="370" y="180" width="100" height="50" as="geometry" />
        </mxCell>
        <mxCell id="JEY6O__xj0MRBRBq67dy-5" value="Registrar Aceptación" style="ellipse;whiteSpace=wrap;html=1;strokeColor=#000000;fillColor=#FFFFFF;" vertex="1" parent="1">
          <mxGeometry x="360" y="450" width="130" height="50" as="geometry" />
        </mxCell>
        <mxCell id="JEY6O__xj0MRBRBq67dy-9" value="Usuario" style="shape=umlActor;verticalLabelPosition=bottom;verticalAlign=top;html=1;outlineConnect=0;" vertex="1" parent="1">
          <mxGeometry x="210" y="230" width="30" height="60" as="geometry" />
        </mxCell>
        <mxCell id="JEY6O__xj0MRBRBq67dy-31" style="edgeStyle=orthogonalEdgeStyle;rounded=0;orthogonalLoop=1;jettySize=auto;html=1;exitX=0.5;exitY=1;exitDx=0;exitDy=0;entryX=0.5;entryY=0;entryDx=0;entryDy=0;dashed=1;" edge="1" parent="1" source="JEY6O__xj0MRBRBq67dy-4" target="JEY6O__xj0MRBRBq67dy-5">
          <mxGeometry relative="1" as="geometry" />
        </mxCell>
        <mxCell id="JEY6O__xj0MRBRBq67dy-4" value="Aceptar Texto Legal" style="ellipse;whiteSpace=wrap;html=1;strokeColor=#000000;fillColor=#FFFFFF;" vertex="1" parent="1">
          <mxGeometry x="357.5" y="360" width="135" height="50" as="geometry" />
        </mxCell>
        <mxCell id="JEY6O__xj0MRBRBq67dy-11" value="" style="endArrow=classic;html=1;rounded=0;startFill=0;endFill=1;" edge="1" parent="1" source="JEY6O__xj0MRBRBq67dy-9" target="JEY6O__xj0MRBRBq67dy-3">
          <mxGeometry width="50" height="50" relative="1" as="geometry">
            <mxPoint x="190" y="260" as="sourcePoint" />
            <mxPoint x="240" y="210" as="targetPoint" />
          </mxGeometry>
        </mxCell>
        <mxCell id="JEY6O__xj0MRBRBq67dy-13" value="" style="endArrow=classic;html=1;rounded=0;exitX=0.951;exitY=0.193;exitDx=0;exitDy=0;exitPerimeter=0;" edge="1" parent="1" source="JEY6O__xj0MRBRBq67dy-5" target="JEY6O__xj0MRBRBq67dy-25">
          <mxGeometry width="50" height="50" relative="1" as="geometry">
            <mxPoint x="240" y="240" as="sourcePoint" />
            <mxPoint x="190" y="290" as="targetPoint" />
          </mxGeometry>
        </mxCell>
        <mxCell id="JEY6O__xj0MRBRBq67dy-14" value="" style="endArrow=classic;html=1;rounded=0;entryX=0.041;entryY=0.477;entryDx=0;entryDy=0;entryPerimeter=0;" edge="1" parent="1" source="JEY6O__xj0MRBRBq67dy-9" target="JEY6O__xj0MRBRBq67dy-4">
          <mxGeometry width="50" height="50" relative="1" as="geometry">
            <mxPoint x="190" y="270" as="sourcePoint" />
            <mxPoint x="240" y="220" as="targetPoint" />
          </mxGeometry>
        </mxCell>
        <mxCell id="JEY6O__xj0MRBRBq67dy-26" value="" style="edgeStyle=orthogonalEdgeStyle;rounded=0;orthogonalLoop=1;jettySize=auto;html=1;" edge="1" parent="1" source="JEY6O__xj0MRBRBq67dy-15" target="JEY6O__xj0MRBRBq67dy-25">
          <mxGeometry relative="1" as="geometry" />
        </mxCell>
        <mxCell id="JEY6O__xj0MRBRBq67dy-15" value="Sistema" style="shape=umlActor;verticalLabelPosition=bottom;verticalAlign=top;html=1;outlineConnect=0;" vertex="1" parent="1">
          <mxGeometry x="600" y="200" width="30" height="60" as="geometry" />
        </mxCell>
        <mxCell id="JEY6O__xj0MRBRBq67dy-17" value="Mostrar texto legal" style="ellipse;whiteSpace=wrap;html=1;" vertex="1" parent="1">
          <mxGeometry x="352.5" y="250" width="130" height="60" as="geometry" />
        </mxCell>
        <mxCell id="JEY6O__xj0MRBRBq67dy-20" value="" style="endArrow=classic;html=1;rounded=0;exitX=0.047;exitY=0.397;exitDx=0;exitDy=0;exitPerimeter=0;" edge="1" parent="1" source="JEY6O__xj0MRBRBq67dy-17" target="JEY6O__xj0MRBRBq67dy-9">
          <mxGeometry width="50" height="50" relative="1" as="geometry">
            <mxPoint x="300" y="300" as="sourcePoint" />
            <mxPoint x="350" y="250" as="targetPoint" />
          </mxGeometry>
        </mxCell>
        <mxCell id="JEY6O__xj0MRBRBq67dy-22" value="" style="endArrow=classic;html=1;rounded=0;" edge="1" parent="1" target="JEY6O__xj0MRBRBq67dy-15">
          <mxGeometry width="50" height="50" relative="1" as="geometry">
            <mxPoint x="470" y="210" as="sourcePoint" />
            <mxPoint x="520" y="160" as="targetPoint" />
          </mxGeometry>
        </mxCell>
        <mxCell id="JEY6O__xj0MRBRBq67dy-24" value="" style="endArrow=none;html=1;rounded=0;entryX=1;entryY=0.5;entryDx=0;entryDy=0;startFill=0;" edge="1" parent="1" source="JEY6O__xj0MRBRBq67dy-25" target="JEY6O__xj0MRBRBq67dy-17">
          <mxGeometry width="50" height="50" relative="1" as="geometry">
            <mxPoint x="590" y="260" as="sourcePoint" />
            <mxPoint x="640" y="210" as="targetPoint" />
          </mxGeometry>
        </mxCell>
        <mxCell id="JEY6O__xj0MRBRBq67dy-25" value="BBDD" style="shape=umlActor;verticalLabelPosition=bottom;verticalAlign=top;html=1;outlineConnect=0;" vertex="1" parent="1">
          <mxGeometry x="600" y="350" width="30" height="60" as="geometry" />
        </mxCell>
        <mxCell id="JEY6O__xj0MRBRBq67dy-27" style="edgeStyle=orthogonalEdgeStyle;rounded=0;orthogonalLoop=1;jettySize=auto;html=1;exitX=0.5;exitY=1;exitDx=0;exitDy=0;entryX=0.447;entryY=0.127;entryDx=0;entryDy=0;entryPerimeter=0;dashed=1;" edge="1" parent="1" source="JEY6O__xj0MRBRBq67dy-17" target="JEY6O__xj0MRBRBq67dy-4">
          <mxGeometry relative="1" as="geometry" />
        </mxCell>
        <mxCell id="JEY6O__xj0MRBRBq67dy-29" style="edgeStyle=orthogonalEdgeStyle;rounded=0;orthogonalLoop=1;jettySize=auto;html=1;exitX=0.5;exitY=1;exitDx=0;exitDy=0;" edge="1" parent="1" source="JEY6O__xj0MRBRBq67dy-4" target="JEY6O__xj0MRBRBq67dy-4">
          <mxGeometry relative="1" as="geometry" />
        </mxCell>
      </root>
    </mxGraphModel>
  </diagram>
</mxfile>
